<svg xmlns="http://www.w3.org/2000/svg" width="63.986" height="13.656" viewBox="0 0 63.986 13.656"><defs><style>.a{opacity:0.7;}.b{fill:#fff;}</style></defs><g class="a"><path class="b" d="M27.352,213.732a6.63,6.63,0,0,1,2.465-5.106c2.3.358,2.7,5.04,2.7,7.992.008,3.174-.448,3.661.2,3.452a14.884,14.884,0,0,0,2.553-1.392c2.786-1.835,6.413-5.2,5.2-9.073a6.5,6.5,0,0,1,1.494,4.127,7.046,7.046,0,0,1-6.689,6.8c-.2.016-.409.025-.617.025A7.093,7.093,0,0,1,27.352,213.732Zm5.69,5.48a12.931,12.931,0,0,0,2.234-6.141,7.8,7.8,0,0,0,0-1.182c-.167-2.092-1.3-3.828-4.237-4.083a6.743,6.743,0,0,1,3.619-.9c.215.005.419.018.617.035,6.946.582,4.179,7.874,0,11.26a8.823,8.823,0,0,1-2.046,1.268,1.109,1.109,0,0,1-.36.136C32.765,219.605,32.856,219.459,33.042,219.212Zm28.636-2.867a2.311,2.311,0,0,1-.946-.29,1.043,1.043,0,0,1-.365-.382,1.811,1.811,0,0,1-.176-.616,12.88,12.88,0,0,1-.049-1.408,10.753,10.753,0,0,1,.041-1.078,2.419,2.419,0,0,1,.161-.65,1.219,1.219,0,0,1,1.027-.735,17.9,17.9,0,0,1,2.64-.141q1.056,0,1.669.05a5.4,5.4,0,0,1,1.012.164,1.028,1.028,0,0,1,.777.811,4.428,4.428,0,0,1,.07.854h-1.7a1.192,1.192,0,0,0-.028-.3.25.25,0,0,0-.1-.132,1.332,1.332,0,0,0-.6-.119q-.43-.023-1.245-.024-.884,0-1.262.038a1.117,1.117,0,0,0-.518.142.567.567,0,0,0-.189.35,4.875,4.875,0,0,0-.049.831,5.926,5.926,0,0,0,.049.924.583.583,0,0,0,.189.369.708.708,0,0,0,.362.124q.224.021,1.41.037,1.163-.008,1.412-.021a1.383,1.383,0,0,0,.4-.071.311.311,0,0,0,.173-.163.843.843,0,0,0,.052-.339c0-.022,0-.07,0-.145H63.651V213.38h3.892c.005.083.008.132.008.141q0,1.106-.061,1.664a1.194,1.194,0,0,1-1.1,1.094,7.4,7.4,0,0,1-.985.11q-.553.029-1.692.029A19.394,19.394,0,0,1,61.678,216.344Zm28.181,0H89.55v-1.387h1.788v1.387Zm-3.965,0v-3.888H83.406v-1.331h6.762v1.331H87.682v3.888Zm-4.751,0v-1.387h1.788v1.387Zm-2.653,0v-5.22h1.788v5.22Zm-4.281,0-.479-.884h-3.7l-.479.884H67.611l2.963-5.22h2.645l2.923,5.22Zm-3.569-2.027h2.494l-1.077-1.976h-.339ZM53.5,216.341v-5.22h6.189v1.227H55.182v.754h4.282v1.147H55.182v.837h4.543v1.254Zm-5.624,0-2.762-5.22h1.871l2.038,3.908h.318l2.019-3.908h1.858l-2.726,5.22Z" transform="translate(-27.352 -206.903)"/></g></svg>